<?xml version="1.0" standalone="no"?>
<!DOCTYPE svg PUBLIC "-//W3C//DTD SVG 20010904//EN"
 "http://www.w3.org/TR/2001/REC-SVG-20010904/DTD/svg10.dtd">
<svg version="1.0" xmlns="http://www.w3.org/2000/svg"
 width="3107.000000pt" height="1258.000000pt" viewBox="0 0 3107.000000 1258.000000"
 preserveAspectRatio="xMidYMid meet">

<g transform="translate(0.000000,1258.000000) scale(0.100000,-0.100000)"
fill="#000000" stroke="none">
<path d="M7643 12004 c97 -94 142 -161 163 -244 63 -248 -129 -626 -552 -1084
-115 -126 -370 -367 -408 -388 -22 -12 -27 -21 69 132 130 208 188 338 225
505 46 215 44 363 -7 458 -23 42 -39 57 -83 80 -50 26 -62 28 -135 24 -75 -4
-205 -33 -205 -46 0 -3 34 -21 75 -40 94 -42 138 -90 166 -181 82 -267 -37
-781 -240 -1033 -36 -44 -89 -92 -96 -86 -2 2 3 29 11 59 26 101 14 177 -39
237 -96 110 -276 95 -365 -30 -19 -26 -33 -50 -30 -52 2 -2 24 5 49 18 133 66
196 -9 186 -223 -7 -152 -22 -186 -167 -390 -57 -80 -84 -173 -76 -258 3 -37
13 -91 20 -121 14 -52 14 -57 -12 -130 -21 -62 -26 -95 -26 -176 -1 -116 16
-162 88 -242 l43 -47 23 95 c25 103 61 181 94 202 12 8 55 22 96 31 97 21 187
64 233 110 20 19 54 74 76 121 22 47 46 85 53 85 15 0 86 -79 142 -157 85
-119 104 -264 67 -508 -31 -198 -32 -180 9 -176 58 5 129 41 168 86 50 57 77
139 102 313 25 170 49 254 89 309 39 53 78 76 185 107 49 14 91 27 93 29 9 9
-40 138 -74 196 -82 140 -294 313 -505 414 -51 24 -150 64 -220 88 -71 24
-128 47 -128 50 0 3 26 13 58 23 80 25 253 113 353 179 525 350 908 942 851
1314 -31 197 -162 333 -386 402 -117 36 -121 30 -33 -55z m-1110 -2450 c30
-61 31 -58 -27 -122 -26 -29 -93 -72 -111 -72 -9 0 -5 103 5 142 9 31 79 107
100 108 3 0 18 -25 33 -56z"/>
<path d="M1640 11665 c0 -3 21 -49 46 -101 25 -52 48 -109 50 -127 3 -17 -4
-83 -15 -146 -35 -189 -27 -254 45 -373 77 -129 368 -386 614 -543 94 -60 260
-144 303 -152 l32 -6 -39 44 c-22 24 -97 105 -167 179 -227 241 -330 379 -384
514 -21 54 -26 82 -23 129 l3 60 -52 19 c-60 23 -58 17 -69 210 -9 177 -41
225 -178 267 -68 21 -166 36 -166 26z"/>
<path d="M2320 11099 c0 -20 114 -231 176 -326 83 -126 218 -302 317 -414 100
-113 213 -209 398 -341 74 -53 144 -107 157 -121 l23 -24 -28 -7 c-15 -3 -69
-9 -119 -12 -78 -6 -108 -3 -213 20 -67 15 -126 26 -132 24 -6 -2 22 -35 63
-74 194 -184 393 -279 615 -291 129 -7 170 3 285 72 115 68 150 73 357 52 84
-9 156 -19 158 -21 3 -3 2 -19 -2 -37 -11 -50 -92 -124 -187 -169 -96 -46
-273 -90 -365 -90 -74 0 -79 -11 -31 -65 62 -72 89 -79 313 -85 110 -3 207 -9
217 -14 31 -14 37 -92 12 -156 -11 -27 -48 -70 -108 -126 l-91 -86 50 7 c77
10 249 71 323 114 85 50 165 130 200 201 24 49 27 66 27 160 -1 120 -17 174
-86 280 -22 35 -37 66 -32 70 6 6 273 41 304 40 26 0 107 -350 150 -645 28
-192 30 -382 5 -480 -10 -38 -47 -130 -82 -204 -35 -74 -63 -136 -60 -138 2
-2 41 3 87 13 207 42 349 -24 395 -185 23 -76 14 -243 -16 -329 -36 -103 -93
-156 -253 -235 -140 -69 -172 -95 -221 -180 -27 -46 -66 -181 -66 -229 l0 -28
63 46 c133 100 230 118 317 60 98 -65 133 -186 107 -371 -8 -60 -18 -118 -22
-127 -11 -27 11 -22 63 14 251 172 354 432 308 773 -47 339 -49 367 -37 444
18 119 83 205 195 257 96 45 170 29 260 -56 l53 -50 7 37 c3 21 6 94 6 163 0
143 11 176 94 288 26 35 46 65 44 67 -2 1 -41 8 -88 15 -110 15 -228 53 -310
98 -85 47 -206 168 -252 252 -107 193 -134 458 -73 710 30 121 58 186 125 284
29 42 50 82 47 90 -7 18 -263 101 -375 122 -52 10 -164 18 -282 21 -166 4
-233 1 -455 -23 -832 -89 -1291 38 -1854 514 -42 35 -150 135 -241 221 -205
196 -240 226 -240 210z"/>
<path d="M13225 11043 c-59 -8 -151 -44 -187 -73 -52 -43 -78 -106 -84 -203
-3 -45 -7 -92 -10 -104 -5 -28 -36 -45 -92 -53 l-43 -5 -3 -70 c-3 -79 -27
-137 -95 -223 -41 -51 -298 -276 -509 -446 -62 -50 -109 -92 -103 -94 30 -10
256 69 431 150 297 138 562 338 650 493 l35 60 5 180 c6 200 9 209 91 324 22
30 39 58 39 63 0 8 -67 9 -125 1z"/>
<path d="M12555 10775 c-131 -102 -288 -221 -349 -264 -345 -242 -640 -374
-961 -428 -120 -20 -377 -22 -545 -5 -465 49 -1056 66 -1319 38 -246 -26 -396
-64 -548 -137 -74 -35 -203 -129 -203 -147 0 -4 24 -20 52 -37 80 -47 170
-136 203 -202 27 -53 30 -67 30 -159 0 -98 -1 -103 -42 -185 -48 -98 -124
-186 -220 -257 -107 -78 -225 -130 -408 -179 -84 -23 -121 -27 -235 -28 -127
0 -138 2 -185 26 -35 19 -57 40 -74 69 -21 38 -23 51 -18 124 3 47 14 103 26
134 12 29 21 55 21 59 0 12 -110 -6 -156 -27 -111 -48 -158 -113 -158 -215 0
-78 30 -133 133 -252 179 -205 292 -276 505 -319 111 -22 163 -55 232 -147 28
-37 81 -126 118 -198 61 -116 71 -130 90 -125 40 12 134 19 160 12 14 -3 41
-27 61 -53 65 -86 43 -167 -83 -295 -64 -66 -59 -71 51 -42 186 48 294 165
305 330 7 108 -12 150 -109 245 -43 42 -81 88 -85 103 -14 59 42 158 109 193
17 9 55 16 84 16 133 0 195 -127 144 -292 -10 -34 -17 -61 -14 -61 2 0 16 6
31 14 46 24 89 78 128 159 31 66 37 91 42 166 8 147 -25 239 -139 390 l-61 82
56 72 c30 40 66 85 78 100 l23 28 69 -11 c56 -9 78 -8 123 5 63 18 72 34 45
72 -24 35 -42 88 -42 123 0 58 81 112 144 96 48 -12 59 -53 67 -246 10 -247
38 -315 159 -379 123 -66 229 -52 315 40 41 44 103 155 92 165 -2 2 -24 -11
-48 -29 -60 -46 -83 -57 -118 -57 -37 0 -81 36 -115 94 -52 90 -44 166 28 244
53 58 93 85 256 171 144 77 196 119 237 191 30 52 62 90 76 90 5 0 7 -40 5
-97 -6 -125 -27 -183 -114 -315 -103 -157 -128 -245 -104 -363 33 -162 153
-284 347 -354 87 -32 233 -64 233 -50 0 4 -36 40 -79 80 -47 43 -87 89 -98
113 -20 46 -23 150 -4 169 9 8 68 12 200 12 l189 0 96 49 c53 26 96 52 96 56
0 12 -71 38 -141 50 -200 35 -348 98 -435 184 -83 84 -96 172 -33 232 29 27
35 29 112 29 75 -1 88 -4 152 -38 39 -21 115 -69 169 -107 55 -38 125 -78 155
-90 182 -70 439 -7 706 174 62 41 192 162 184 170 -2 3 -47 -7 -99 -21 -115
-30 -271 -41 -352 -24 -90 19 -173 66 -219 123 -21 27 -39 55 -39 62 0 14 51
51 210 155 203 133 427 347 670 641 62 74 151 180 199 235 102 116 185 224
179 231 -3 2 -112 -79 -243 -181z"/>
<path d="M1366 10721 l-29 -6 41 -23 c22 -12 49 -37 60 -56 l20 -33 118 -5
c96 -5 137 -12 215 -37 53 -17 99 -31 103 -31 12 0 -34 63 -68 93 -45 40 -116
75 -188 92 -63 15 -217 18 -272 6z"/>
<path d="M13513 10375 c-29 -8 -75 -26 -103 -40 -52 -26 -190 -149 -179 -159
3 -3 35 6 70 20 96 40 153 53 266 64 97 9 104 11 155 49 29 23 56 41 61 41 4
0 7 4 7 9 0 12 -104 31 -169 30 -31 0 -80 -7 -108 -14z"/>
<path d="M1930 10341 c-92 -30 -162 -104 -184 -195 -6 -25 -5 -28 11 -21 48
21 124 35 183 35 76 0 152 -32 184 -77 24 -33 33 -122 16 -162 -6 -16 -9 -38
-6 -48 3 -10 40 -47 81 -81 286 -238 511 -346 778 -371 108 -11 314 -4 322 9
6 10 -72 43 -150 65 -295 83 -429 182 -740 550 -153 181 -201 227 -278 265
-69 34 -166 48 -217 31z"/>
<path d="M13045 9986 c-109 -34 -179 -95 -363 -313 -82 -98 -188 -215 -236
-261 -140 -134 -294 -224 -466 -270 -209 -57 -193 -77 65 -77 213 0 288 16
450 94 94 46 158 90 411 285 l102 77 -10 37 c-15 54 -5 147 19 180 11 15 40
38 64 52 55 31 166 34 247 6 29 -10 56 -15 59 -12 3 3 0 27 -7 53 -20 68 -73
117 -155 142 -76 24 -122 25 -180 7z"/>
<path d="M2264 9275 c67 -221 354 -383 788 -445 300 -43 730 -24 872 38 42 19
63 38 53 48 -2 3 -62 11 -133 20 -411 47 -781 127 -918 196 -21 11 -69 48
-105 82 -95 89 -161 106 -418 106 l-152 0 13 -45z"/>
<path d="M12515 8965 c-91 -19 -124 -36 -214 -109 -104 -85 -171 -118 -323
-160 -164 -45 -319 -71 -605 -102 -131 -14 -240 -28 -243 -30 -8 -9 23 -23
103 -49 329 -105 886 -76 1246 66 205 81 354 214 396 354 l14 45 -157 -1 c-89
0 -183 -6 -217 -14z"/>
<path d="M6944 8899 c-156 -84 -322 -255 -404 -419 -106 -210 -137 -436 -95
-680 26 -156 30 -159 66 -52 29 89 51 131 86 164 65 62 187 88 232 51 l21 -18
-54 -78 c-133 -192 -157 -380 -75 -579 32 -78 86 -168 100 -168 13 0 36 50 54
120 22 87 39 115 82 145 124 84 305 -54 333 -254 19 -133 -26 -262 -128 -373
-70 -75 -151 -136 -347 -258 -241 -150 -323 -217 -401 -327 -47 -65 -118 -207
-112 -225 2 -5 39 20 83 57 180 151 322 178 553 104 56 -19 62 -23 62 -47 0
-15 -16 -65 -36 -112 -20 -47 -52 -123 -71 -169 -44 -104 -62 -205 -63 -341 0
-262 81 -538 190 -645 22 -21 42 -37 44 -34 3 3 -1 41 -9 84 -47 261 9 572
126 699 60 66 91 80 169 74 48 -3 69 -11 114 -42 67 -46 138 -130 207 -248 29
-48 55 -88 58 -88 3 0 29 17 56 38 148 112 174 326 79 666 -20 74 -74 244
-144 460 l-10 29 45 -6 c117 -16 155 -64 205 -254 12 -46 26 -83 31 -83 4 0
21 42 38 93 104 329 74 662 -86 944 -94 165 -167 249 -517 598 -409 407 -464
475 -511 640 -36 122 -6 305 80 493 23 48 29 72 21 72 -7 0 -40 -14 -72 -31z"/>
<path d="M9470 8795 c0 -3 15 -36 34 -73 65 -129 88 -209 94 -319 9 -194 -34
-277 -330 -639 -135 -166 -141 -175 -168 -253 -52 -156 -1 -428 99 -529 54
-54 90 -66 176 -63 61 3 62 11 6 120 -61 121 -71 172 -46 238 22 56 97 140
142 159 100 42 180 -26 204 -174 14 -84 9 -83 122 -24 150 78 221 214 220 422
-1 243 -125 561 -357 915 -89 136 -196 255 -196 220z"/>
<path d="M4487 8714 c-214 -28 -337 -81 -436 -187 -191 -203 -217 -221 -366
-246 -89 -15 -167 -38 -190 -55 -17 -12 -15 -14 16 -19 243 -45 550 -48 689
-7 225 65 351 210 389 450 6 36 7 67 3 70 -4 4 -51 1 -105 -6z"/>
<path d="M7402 8588 c-41 -73 -107 -145 -156 -170 -31 -17 -64 -23 -138 -26
l-97 -4 23 -47 c45 -87 143 -227 233 -332 107 -124 210 -223 483 -465 392
-346 514 -503 527 -674 5 -60 2 -73 -36 -164 -23 -53 -41 -102 -39 -107 6 -18
173 95 239 160 101 102 138 204 119 326 -21 129 -69 225 -247 488 -181 268
-236 383 -198 420 20 21 57 21 120 2 27 -8 51 -12 53 -10 10 9 -45 101 -80
136 -52 51 -119 74 -301 105 -179 31 -246 54 -299 102 -48 44 -75 89 -124 215
-21 53 -41 97 -45 97 -4 0 -20 -24 -37 -52z"/>
<path d="M3120 8599 c-41 -5 -154 -17 -250 -27 -153 -16 -171 -19 -145 -29 17
-7 79 -32 139 -58 317 -133 486 -111 580 73 10 19 15 37 11 40 -10 11 -252 11
-335 1z"/>
<path d="M9886 8552 c-17 -8 -16 -11 15 -32 60 -43 151 -134 170 -173 12 -23
25 -84 34 -163 16 -130 49 -249 90 -319 36 -62 128 -142 202 -178 62 -29 76
-32 163 -32 87 1 100 3 158 33 34 18 62 34 62 37 0 2 -51 38 -114 79 -209 138
-290 245 -340 447 -29 117 -50 163 -97 210 -61 61 -135 91 -237 95 -48 2 -96
0 -106 -4z"/>
<path d="M10543 8363 c-7 -18 14 -130 37 -198 28 -82 61 -133 118 -187 105
-99 227 -138 457 -145 149 -5 455 11 514 27 23 6 18 9 -39 28 -36 12 -105 28
-155 37 -148 27 -195 54 -342 202 -102 103 -141 136 -194 161 -112 54 -384
106 -396 75z"/>
<path d="M11670 8221 c-53 -7 -54 -15 -5 -82 42 -56 97 -96 161 -115 107 -32
230 -8 424 82 l124 59 -44 7 c-25 3 -81 7 -125 7 -44 1 -150 12 -235 26 -153
25 -212 28 -300 16z"/>
<path d="M3676 8006 c-85 -31 -136 -64 -203 -133 -99 -101 -184 -283 -198
-423 l-6 -65 40 61 c42 64 89 110 128 125 13 5 81 16 151 24 240 30 327 62
422 155 54 53 120 163 120 201 0 13 -21 24 -77 44 -62 22 -101 28 -193 32
-104 3 -122 1 -184 -21z"/>
<path d="M4895 7986 c-33 -8 -109 -32 -170 -55 -151 -55 -202 -65 -318 -58
-112 6 -110 10 -51 -78 49 -75 151 -168 221 -200 41 -20 79 -30 131 -33 66 -4
78 -2 137 27 78 39 147 113 199 213 80 156 26 224 -149 184z"/>
<path d="M5855 7935 c-51 -27 -69 -62 -73 -140 -4 -68 11 -155 26 -155 4 0 18
16 31 35 28 41 79 75 113 75 31 0 61 -31 90 -95 33 -72 32 -246 -2 -400 -17
-78 -24 -142 -25 -220 0 -101 2 -115 28 -167 30 -61 105 -137 169 -169 20 -10
39 -19 41 -19 3 0 -8 37 -24 83 -22 62 -29 100 -29 158 0 93 16 150 81 278 88
174 88 290 3 467 -47 95 -161 217 -239 254 -62 30 -149 37 -190 15z"/>
<path d="M11183 7695 c-57 -16 -128 -49 -154 -72 -32 -28 3 -124 74 -200 95
-104 198 -148 380 -164 196 -17 235 -32 313 -118 29 -31 55 -53 60 -48 12 11
-32 151 -73 232 -77 155 -189 276 -308 334 -106 51 -194 62 -292 36z"/>
<path d="M10320 7412 c0 -4 16 -40 36 -80 27 -54 50 -84 85 -112 91 -72 221
-120 323 -120 l50 0 -60 36 c-83 50 -119 78 -204 160 -67 65 -83 75 -153 97
-42 14 -77 22 -77 19z"/>
<path d="M4675 7371 c-11 -5 -40 -12 -65 -16 -40 -7 -54 -18 -126 -94 -64 -68
-101 -97 -174 -138 -50 -28 -88 -53 -83 -56 11 -6 150 11 193 25 131 41 263
161 295 266 7 24 -4 27 -40 13z"/>
<path d="M14990 6450 c-71 -24 -120 -77 -120 -131 0 -74 93 -122 194 -99 98
22 161 76 161 139 0 46 -17 68 -70 92 -51 23 -96 23 -165 -1z"/>
<path d="M24548 6463 c6 -2 18 -2 25 0 6 3 1 5 -13 5 -14 0 -19 -2 -12 -5z"/>
<path d="M25081 6459 c-119 -35 -179 -140 -113 -201 33 -32 103 -52 151 -43
98 17 181 85 181 147 0 78 -111 127 -219 97z"/>
<path d="M10129 6434 c-152 -27 -360 -106 -373 -141 -14 -36 12 -37 121 -5
251 73 430 68 501 -13 75 -85 40 -260 -68 -340 -63 -46 -210 -75 -210 -41 0
24 70 218 101 279 33 65 36 92 13 101 -48 18 -207 -8 -273 -45 -57 -31 -97
-91 -156 -231 -110 -266 -138 -308 -204 -308 -55 0 -68 -35 -25 -69 47 -37
130 -55 254 -56 163 0 188 18 239 176 l22 66 87 -4 c160 -9 341 37 444 112
130 95 183 265 120 386 -36 69 -97 112 -191 133 -86 20 -295 20 -402 0z"/>
<path d="M17207 6431 c-99 -27 -162 -57 -253 -117 -151 -100 -242 -231 -265
-383 -14 -91 -2 -146 47 -218 81 -118 230 -172 439 -160 160 10 328 67 381
130 44 53 15 59 -122 26 -123 -29 -245 -24 -297 11 -143 98 -104 367 83 564
30 32 73 67 95 79 40 20 111 27 133 13 24 -15 11 -70 -43 -183 -30 -64 -55
-126 -55 -139 0 -47 86 -74 168 -54 102 24 172 120 172 237 0 54 -4 67 -33
105 -21 28 -53 53 -92 73 -55 27 -70 30 -175 32 -88 2 -131 -2 -183 -16z"/>
<path d="M24135 6430 c-57 -14 -81 -28 -113 -64 -57 -65 -82 -129 -152 -385
-59 -217 -86 -279 -145 -326 -50 -42 -59 -59 -40 -78 11 -11 88 -14 401 -15
232 -1 403 2 425 8 71 19 118 99 154 263 36 163 -2 170 -153 27 -140 -132
-253 -191 -399 -209 l-62 -7 37 32 c48 41 87 121 147 304 69 212 112 299 179
363 61 58 66 71 37 87 -22 11 -270 12 -316 0z"/>
<path d="M10965 6388 c-2 -7 -9 -45 -14 -85 -14 -90 -60 -243 -150 -496 -39
-109 -71 -209 -71 -223 l0 -26 153 4 c168 3 180 7 191 61 3 17 32 112 63 209
43 136 61 179 75 184 33 10 103 8 126 -5 34 -18 28 -59 -28 -198 -76 -188 -76
-232 -2 -253 114 -31 331 5 482 80 l55 28 39 -34 c61 -53 134 -75 261 -81 165
-8 301 28 401 108 52 41 111 129 119 179 l7 41 51 -3 c40 -2 51 -6 48 -18 -2
-8 -3 -43 -3 -76 -1 -105 56 -175 169 -211 26 -8 103 -17 169 -20 148 -7 286
14 421 62 51 18 93 32 93 30 0 -2 -4 -15 -10 -29 -19 -52 -10 -56 134 -55 207
2 179 -23 266 234 l75 220 61 3 c111 5 116 -22 39 -210 -25 -62 -49 -136 -52
-164 -5 -47 -4 -51 23 -69 67 -44 264 -28 437 36 45 16 82 29 83 29 1 0 5 -11
8 -25 20 -80 237 -84 456 -10 86 29 80 28 80 11 0 -25 48 -66 78 -66 36 0 129
56 206 124 l61 53 31 -56 c37 -68 93 -106 179 -122 69 -13 191 -5 279 17 116
30 246 113 233 148 -4 10 -13 16 -20 13 -144 -64 -231 -82 -263 -56 -25 21
-59 78 -93 157 l-30 72 44 25 c58 34 98 45 168 45 81 0 97 11 97 63 0 48 -32
124 -55 133 -37 15 -101 -22 -214 -123 l-69 -63 -17 42 c-42 105 -96 138 -227
139 -156 1 -351 -66 -323 -111 4 -7 27 -9 64 -4 37 4 66 2 80 -5 26 -14 51
-63 82 -158 23 -72 23 -73 3 -88 -34 -26 -107 -44 -202 -51 -85 -6 -94 -9
-102 -30 -5 -12 -13 -25 -18 -28 -14 -8 -115 -22 -134 -18 -32 6 -21 67 41
225 67 172 82 222 74 243 -4 11 -36 14 -167 14 -88 0 -166 -4 -172 -8 -6 -4
-16 -42 -23 -85 -10 -68 -45 -178 -96 -300 -17 -40 -44 -56 -147 -82 -110 -29
-123 8 -58 162 72 167 76 239 19 287 -17 14 -42 29 -56 32 -51 13 -168 -3
-270 -38 l-103 -34 0 34 0 33 -164 -3 c-91 -2 -167 -5 -169 -8 -3 -3 -10 -41
-16 -84 -14 -98 -88 -323 -110 -335 -52 -28 -215 -63 -317 -68 -133 -7 -189
11 -217 68 l-16 34 52 8 c128 20 225 40 272 58 183 68 208 248 45 318 -42 18
-70 22 -163 22 -194 0 -338 -52 -438 -158 -49 -52 -55 -55 -99 -55 -71 0 -87
8 -94 47 -13 66 -83 125 -179 151 -71 19 -248 19 -333 -1 -142 -33 -265 -116
-314 -211 -21 -41 -25 -63 -25 -137 l0 -87 -60 -19 c-174 -56 -198 -29 -126
142 83 196 81 266 -9 312 -59 31 -231 8 -363 -48 -36 -15 -38 -15 -33 1 51
169 67 236 64 264 l-3 33 -158 3 c-121 2 -158 0 -162 -10z m2334 -330 c12 -33
-6 -98 -38 -138 -26 -33 -99 -80 -147 -94 -21 -6 -21 -6 -9 51 26 124 85 203
151 203 27 0 37 -5 43 -22z m-945 -10 c46 -65 -15 -305 -95 -372 -30 -26 -81
-34 -105 -18 -58 38 -37 230 36 331 56 76 133 104 164 59z"/>
<path d="M25546 6388 c-2 -7 -9 -47 -15 -88 -19 -120 -151 -539 -183 -577 -24
-30 -197 -67 -226 -49 -24 15 -11 72 53 232 36 90 67 180 68 201 l2 38 -155 3
c-192 3 -200 2 -200 -42 0 -52 -35 -176 -90 -314 -27 -70 -50 -139 -50 -153 0
-30 32 -62 79 -78 76 -25 235 -6 396 49 49 17 92 30 96 30 3 0 9 -13 12 -28
12 -57 77 -65 211 -27 l87 26 57 -28 c55 -27 62 -28 212 -27 166 0 265 15 399
60 40 14 75 23 77 21 2 -2 -1 -18 -7 -36 -8 -21 -8 -36 -2 -42 13 -13 310 4
324 18 6 6 38 98 73 204 l62 194 60 -1 c45 -1 75 -8 117 -29 47 -24 60 -27 80
-18 29 14 77 108 85 166 7 52 -13 67 -88 67 -64 0 -132 -29 -197 -85 l-41 -35
10 40 c18 69 16 70 -146 70 -80 0 -156 -4 -170 -10 -23 -8 -26 -15 -26 -57 0
-52 -34 -189 -72 -293 -20 -53 -31 -68 -59 -82 -41 -21 -125 -43 -199 -53
l-54 -7 46 50 c123 137 141 321 41 413 -39 36 -83 49 -169 49 -85 0 -162 -25
-220 -71 -20 -16 -38 -28 -39 -27 -2 2 20 69 47 151 29 88 47 155 43 167 -6
19 -16 20 -166 20 -119 0 -160 -3 -163 -12z m393 -387 c30 -30 35 -81 16 -146
-13 -46 -29 -70 -78 -120 -70 -72 -119 -90 -166 -63 -24 13 -26 19 -25 79 1
65 25 130 77 202 44 64 136 88 176 48z"/>
<path d="M8179 6337 c0 -1 -3 -29 -5 -62 -7 -84 -27 -168 -81 -334 l-46 -143
66 -62 c220 -205 413 -596 540 -1096 98 -383 117 -703 67 -1124 -25 -201 -25
-189 0 -176 76 40 277 279 329 390 25 52 26 63 25 215 -1 286 -80 662 -236
1130 -164 490 -431 1027 -594 1197 -35 36 -64 65 -65 65z"/>
<path d="M21120 6271 c-180 -40 -170 -35 -170 -86 0 -59 -8 -75 -37 -75 -35 0
-63 -18 -63 -40 0 -19 32 -36 50 -25 5 3 14 3 20 0 11 -7 -16 -84 -81 -228
-46 -105 -47 -105 -161 -137 -132 -36 -145 -6 -72 165 73 172 71 250 -8 295
-58 32 -166 25 -305 -22 l-103 -34 0 33 0 33 -147 0 c-82 0 -158 -3 -169 -6
-18 -5 -23 -16 -28 -62 -10 -83 -34 -175 -74 -279 l-35 -93 -79 -25 c-91 -29
-130 -31 -148 -10 -19 22 -2 85 72 281 33 89 58 169 55 178 -5 14 -28 16 -154
16 -81 0 -154 -4 -161 -9 -7 -4 -20 -36 -28 -70 -11 -51 -119 -356 -130 -370
-2 -2 -25 -6 -51 -8 -38 -4 -54 -1 -73 15 -38 30 -30 79 41 255 36 91 59 162
56 172 -6 15 -24 16 -162 13 -165 -3 -175 -6 -175 -54 0 -40 -33 -125 -52
-135 -22 -12 -123 -15 -154 -5 -14 4 -25 22 -34 49 -30 103 -145 158 -331 158
-177 0 -316 -45 -416 -135 -63 -57 -96 -123 -101 -204 -11 -168 102 -259 334
-269 115 -6 173 2 271 38 117 42 208 129 239 228 l19 60 78 3 c74 3 78 2 72
-17 -45 -156 -47 -219 -10 -264 14 -16 42 -35 62 -42 55 -18 165 -5 276 31
l97 33 20 -26 c31 -39 80 -51 189 -44 97 6 192 27 290 65 30 12 56 20 58 18 2
-2 -1 -15 -6 -28 -7 -18 -6 -29 2 -37 12 -12 202 -15 281 -5 l46 7 72 221 73
221 61 3 c112 5 117 -24 37 -218 -80 -196 -64 -242 87 -248 93 -5 207 16 323
59 45 16 84 29 88 29 4 0 10 -12 13 -26 5 -18 20 -31 54 -46 41 -19 59 -20
167 -15 119 6 295 40 383 73 24 9 45 14 48 11 2 -2 0 -16 -5 -31 -21 -54 -12
-58 138 -50 75 4 147 10 161 13 22 6 32 27 92 206 l66 200 59 0 c44 0 72 -7
115 -29 48 -24 62 -27 82 -18 29 13 75 104 83 163 8 54 -11 69 -86 69 -66 0
-116 -21 -187 -78 l-51 -40 9 39 c18 71 18 71 -162 67 -115 -2 -163 -7 -169
-16 -4 -6 -8 -33 -10 -60 -3 -75 -73 -313 -101 -347 -19 -23 -139 -48 -234
-49 l-91 -1 1 45 c0 31 20 91 63 196 l63 151 95 11 c93 11 123 22 123 47 0 30
-28 37 -107 27 -43 -6 -78 -10 -80 -9 -1 1 5 29 13 62 7 33 11 68 8 78 -7 24
-52 21 -204 -12z m-2866 -223 c47 -67 -20 -314 -102 -379 -37 -29 -102 -23
-119 11 -18 35 -16 131 3 196 41 140 169 242 218 172z"/>
<path d="M2967 6194 c-2 -5 2 -79 10 -164 56 -612 297 -1140 702 -1539 220
-216 541 -424 761 -492 106 -33 271 -33 483 1 86 14 157 28 157 32 0 11 -63
41 -175 83 -365 135 -552 228 -805 399 -299 202 -531 432 -714 706 -114 171
-139 225 -281 620 -96 266 -133 361 -138 354z"/>
<path d="M27540 6158 c-111 -12 -196 -53 -268 -128 -105 -109 -138 -303 -68
-395 75 -97 278 -113 400 -30 l37 25 30 -29 c44 -44 88 -55 198 -48 93 6 211
34 294 71 l39 17 -8 -23 c-4 -13 -8 -32 -8 -43 -1 -19 4 -20 138 -16 76 2 150
6 165 10 24 6 31 23 92 206 l66 200 60 -1 c44 -1 74 -8 116 -29 47 -24 60 -27
80 -18 30 14 76 104 84 164 8 54 -11 69 -87 69 -64 0 -132 -29 -197 -85 l-41
-35 10 40 c18 69 16 70 -146 70 -192 0 -192 0 -199 -92 -5 -70 -74 -305 -97
-333 -16 -19 -147 -65 -185 -65 -51 0 -54 28 -15 136 93 260 111 316 105 333
-4 13 -19 21 -48 25 -59 8 -263 9 -276 1 -6 -3 -11 -15 -11 -26 0 -24 -1 -24
-49 2 -51 26 -129 36 -211 27z m216 -133 c21 -33 13 -98 -21 -174 -58 -125
-136 -183 -210 -155 -23 9 -45 57 -45 101 0 75 81 201 155 241 11 6 39 12 62
12 35 0 46 -5 59 -25z"/>
<path d="M22353 6144 c-7 -3 -13 -22 -13 -42 0 -20 -14 -75 -31 -122 -105
-287 -93 -362 63 -384 57 -9 187 8 275 35 36 11 67 19 69 17 2 -2 -1 -20 -7
-40 -10 -40 -9 -39 -144 -53 -109 -11 -257 -45 -307 -71 -63 -32 -90 -81 -68
-122 8 -15 38 -38 65 -52 48 -24 58 -25 230 -25 136 1 195 5 242 18 128 34
199 87 247 185 l31 64 82 24 c166 48 295 128 240 150 -7 2 -38 -6 -68 -19 -61
-28 -220 -79 -225 -74 -2 2 32 110 76 240 44 131 80 247 80 258 0 20 -3 21
-142 14 -194 -8 -184 -4 -203 -73 -9 -31 -34 -114 -56 -184 -44 -142 -53 -152
-143 -164 -36 -5 -47 -3 -65 15 -27 27 -25 42 36 206 25 66 45 138 46 160 l2
40 -150 2 c-82 1 -156 -1 -162 -3z m317 -656 c0 -7 -9 -31 -19 -53 -44 -98
-165 -139 -214 -73 -19 25 -19 28 -3 52 20 31 58 51 128 70 67 19 108 20 108
4z"/>
<path d="M29113 6144 c-7 -3 -13 -19 -13 -36 0 -17 -22 -97 -50 -178 -91 -270
-64 -336 140 -333 85 2 140 12 267 49 21 6 21 4 11 -35 -6 -23 -14 -41 -19
-41 -30 0 -256 -34 -314 -47 -162 -36 -230 -105 -175 -176 40 -50 96 -62 290
-61 291 0 410 51 484 203 31 64 31 65 92 81 153 41 295 121 267 150 -9 10 -28
6 -85 -18 -82 -34 -209 -74 -215 -68 -2 2 32 110 77 241 44 131 80 246 80 257
0 19 -5 20 -142 13 -198 -8 -184 -2 -208 -88 -11 -39 -36 -123 -56 -184 -39
-125 -50 -137 -138 -149 -36 -5 -47 -3 -65 15 -27 27 -25 42 37 210 25 68 45
140 46 160 l1 36 -150 2 c-82 1 -156 -1 -162 -3z m317 -656 c-1 -24 -37 -93
-61 -115 -55 -50 -136 -58 -168 -17 -27 34 -26 46 2 71 31 29 64 45 122 59 67
16 105 17 105 2z"/>
<path d="M6708 5950 c-142 -48 -254 -110 -379 -210 -104 -83 -378 -359 -595
-600 -230 -256 -337 -364 -443 -444 -97 -74 -232 -157 -328 -202 -79 -37 -302
-114 -328 -114 -50 0 50 -88 158 -139 204 -98 373 -131 489 -97 172 50 434
306 834 816 196 250 307 375 416 471 46 40 88 80 94 89 7 8 19 56 28 105 25
132 42 177 100 259 69 95 69 96 54 96 -7 0 -52 -14 -100 -30z"/>
<path d="M7316 5265 c-55 -19 -110 -77 -142 -149 -54 -121 -41 -295 31 -389
49 -65 59 -107 58 -242 -1 -223 -70 -525 -228 -990 -40 -121 -75 -233 -77
-250 -3 -29 -1 -31 66 -52 84 -28 226 -46 279 -38 30 6 43 15 62 45 106 168
222 669 255 1102 13 170 13 427 0 543 -34 301 -158 473 -304 420z"/>
<path d="M9044 3558 c-11 -13 -36 -48 -54 -78 -43 -69 -153 -185 -248 -261
-325 -260 -741 -328 -1349 -219 -316 57 -605 154 -1168 394 -110 47 -202 82
-205 79 -8 -8 86 -88 180 -152 342 -235 866 -453 1310 -546 503 -105 965 -53
1235 140 165 117 246 277 329 648 6 23 -7 21 -30 -5z"/>
<path d="M6776 2748 c-72 -194 -220 -462 -371 -673 -238 -331 -576 -680 -1115
-1150 -520 -454 -528 -461 -409 -414 280 110 1155 761 1506 1121 139 142 356
405 445 538 50 74 121 198 158 275 72 146 131 319 114 334 -9 8 -253 71 -277
71 -8 0 -29 -42 -51 -102z"/>
</g>
</svg>
